<?xml version="1.0" encoding="utf-8"?>
<!-- Generator: Adobe Illustrator 25.4.1, SVG Export Plug-In . SVG Version: 6.00 Build 0)  -->
<svg version="1.1" id="Layer_1" xmlns="http://www.w3.org/2000/svg" xmlns:xlink="http://www.w3.org/1999/xlink" x="0px" y="0px"
	 viewBox="0 0 660.78 124.58" style="enable-background:new 0 0 660.78 124.58;" xml:space="preserve">
<style type="text/css">
	.st0{fill:#F2F8EE;}
	.st1{fill:#F2F8EE;stroke:#FFFFFF;stroke-width:3;stroke-miterlimit:10;}
	.st2{fill:#A8DADC;}
	.st3{font-family:'Silom';}
	.st4{font-size:87.944px;}
</style>
<g>
	<path class="st0" d="M82.77,12.05c-12.97-9-29.65-9.9-41.47-2.56c-10.98,6.81-13.6,18.17-14.15,20.84
		c-2.97,0.95-9.71,3.55-14.38,9.96c-6.09,8.35-6.24,19.79-0.63,29.68c-0.71,0.77-8.06,8.91-5.89,16.33
		c1.06,3.61,4.18,6.39,11.77,8.94c7.61,2.55,22.17,5.7,43.78,0.25c1.97-1.49,4.97-3.38,8.92-4.56c2.78-0.83,5.25-1.08,7.19-1.11
		c0.61-0.49,1.67-1.26,3.09-1.9c0,0,3.86-1.74,15.39,0.09l0,0c0,0,8.36-3.77,9.26-4.17c18.01-8.08,28.93-8.14,32.27-15.36
		c1.49-3.23,2.63-10.39-7.86-26.15c2.35-11.48-2.83-23.19-13.12-29.73C106.72,6.13,93.29,5.91,82.77,12.05z"/>
	<path class="st1" d="M101.34,22.17c-11.52-5.92-25.72-5.29-35.33,1.33C57.08,29.65,55.5,38.64,55.2,40.75
		c-2.47,0.97-8.03,3.52-11.63,8.85c-4.69,6.95-4.15,15.8,1.17,23.01c-0.91,1.05-5.25,6.32-4.06,13.1
		c1.19,6.82,7.12,10.27,8.92,11.32c10.34,6.03,23.09,1.89,24.54,1.41c0.31,0.53,5.9,9.64,18.36,10.14c12.85,0.52,20.52-8.62,20.83-9
		c2.2,1.06,7.35,3.2,14.1,2.58c6.76-0.62,16.96-4.16,19.93-12.43c3.22-8.96-4.64-16.21-5.04-16.56c1.78-1.18,7.28-5.12,9.05-11.75
		c1.92-7.18-1.28-14.69-8.17-19.59c1.34-9.07-3.73-17.71-12.84-21.94C121.32,15.68,109.9,16.58,101.34,22.17z"/>
</g>
<text transform="matrix(0.8128 0 0 1 185.6215 98.494)" class="st2 st3 st4">Weatherly</text>
</svg>
